# xmcd
#
# Track frame offsets:
# 150
# 18800
# 34261
# 52722
# 63769
# 84209
# 100995
# 119404
# 135316
# 150708
# 171245
# 194083
#
# Disc length: 2732 seconds
#
#
# Revision: 0
# Processed by: cddbd v1.5.1PL0 Copyright (c) Steve Scherf et al.
# Submitted via: FreeRIP 2.942 
#
DISCID=900aaa0c
DTITLE=Lauriete - Melhores Momentos
DYEAR=1900
DGENRE=Gospel
TTITLE0=Igreja do Poder
TTITLE1=O Grito
TTITLE2=Deus Esta Neste Lugar
TTITLE3=Tanque de Siloé
TTITLE4=Ausencia
TTITLE5=Nao Chores Mais
TTITLE6=Pra Voce
TTITLE7=Igreja de Deus
TTITLE8=Minha Cruz
TTITLE9=Visita ao Desviado
TTITLE10=Servo de Deus
TTITLE11=Jesus, Neste Nome Ha Poder
EXTD=
EXTT0=
EXTT1=
EXTT2=
EXTT3=
EXTT4=
EXTT5=
EXTT6=
EXTT7=
EXTT8=
EXTT9=
EXTT10=
EXTT11=
PLAYORDER=
